English Babu Desi Mem Naslednik.1996.avi
   General
      Complete name : English Babu Desi Mem Naslednik.1996.avi
      Format : AVI
      Format/Info : Audio Video Interleave
      File size : 1.53 GiB
      Duration : 2h 43mn
      Overall bit rate : 1 341 Kbps
   Video #0
      ID : 0
      Format : MPEG-4 Visual
      Format profile : Simple@L1
      Format settings, BVOP : No
      Format settings, QPel : No
      Format settings, GMC : No warppoints
      Format settings, Matrix : Default (H.263)
      Codec ID : DIVX
      Codec ID/Info : Project Mayo
      Codec ID/Hint : DivX 4
      Duration : 2h 43mn
      Bit rate : 1 199 Kbps
      Width : 720 pixels
      Height : 480 pixels
      Display aspect ratio : 2.25:1
      Frame rate : 29.970 fps
      Standard : NTSC
      Resolution : 24 bits
      Colorimetry : 4:2:0
      Scan type : Progressive
      Bits/(Pixel*Frame) : 0.116
      Stream size : 1.37 GiB (89%)
      Writing library : avc2.0.11.1110
   Audio #1
      ID : 1
      Format : MPEG Audio
      Format version : Version 1
      Format profile : Layer 3
      Codec ID : 55
      Codec ID/Hint : MP3
      Duration : 2h 43mn
      Bit rate mode : Constant
      Bit rate : 128 Kbps
      Channel(s) : 2 channels
      Sampling rate : 48.0 KHz
      Resolution : 16 bits
      Stream size : 150 MiB (10%)
      Alignment : Aligned on interleaves
      Interleave, duration : 24 ms (0.72 video frame)
      Writing library : LAME3.96.1